<svg width="48" height="48" viewBox="0 0 48 48" fill="none" xmlns="http://www.w3.org/2000/svg">
<rect width="48" height="48" fill="white"/>
<path d="M0 5H48V21C48 23.7614 45.7614 26 43 26H5C2.23858 26 0 23.7614 0 21V5Z" fill="#152C5B"/>
<rect x="7" y="19" width="34" height="3" fill="white"/>
<path d="M8 29L10.0347 31.1544C11.16 32.3459 11.2303 34.1861 10.1991 35.46V35.46C9.00871 36.9304 9.30973 39.101 10.8553 40.192L12 41" stroke="#152C5B" stroke-width="3"/>
<path d="M22 29L24.0347 31.1544C25.16 32.3459 25.2303 34.1861 24.1991 35.46V35.46C23.0087 36.9304 23.3097 39.101 24.8553 40.192L26 41" stroke="#152C5B" stroke-width="3"/>
<path d="M36 29L38.0347 31.1544C39.16 32.3459 39.2303 34.1861 38.1991 35.46V35.46C37.0087 36.9304 37.3097 39.101 38.8553 40.192L40 41" stroke="#152C5B" stroke-width="3"/>
</svg>
