<svg width="48" height="48" viewBox="0 0 48 48" fill="none" xmlns="http://www.w3.org/2000/svg">
<g clip-path="url(#clip0)">
<rect width="48" height="48" fill="white"/>
<path d="M1.82598 7.78307C1.92766 7.32553 2.33347 7 2.80217 7H7.19783C7.66653 7 8.07234 7.32553 8.17402 7.78307L9.72957 14.7831C9.86835 15.4076 9.39313 16 8.75338 16H1.24662C0.606868 16 0.131648 15.4076 0.270429 14.7831L1.82598 7.78307Z" fill="#152C5B"/>
<rect x="4" y="17" width="2" height="24" rx="1" fill="#152C5B"/>
<rect x="9" y="40" width="2" height="8" rx="1" transform="rotate(90 9 40)" fill="#152C5B"/>
<rect x="11" y="35.2174" width="2.84615" height="6.78261" rx="1.42308" fill="#152C5B"/>
<rect x="45.1538" y="35.2174" width="2.84615" height="6.78261" rx="1.42308" fill="#152C5B"/>
<path fill-rule="evenodd" clip-rule="evenodd" d="M12.4231 17C12.4231 16.4477 12.8708 16 13.4231 16H47C47.5523 16 48 16.4477 48 17V26.4097C48 27.2171 47.0456 27.7478 46.2656 27.5388C45.701 27.3875 45.0859 27.3043 44.4423 27.3043C41.6915 27.3043 39.4615 28.8227 39.4615 30.6957C39.4615 31.5635 38.9094 32.9565 38.0416 32.9565H20.9584C20.0906 32.9565 19.5385 31.5635 19.5385 30.6957C19.5385 28.8227 17.3085 27.3043 14.5577 27.3043C14.2881 27.3043 14.0235 27.3189 13.7655 27.347C13.0907 27.4204 12.4231 26.9351 12.4231 26.2562V17Z" fill="#152C5B"/>
<rect x="12.4231" y="34.087" width="35.5769" height="5.65217" rx="1" fill="#152C5B"/>
<rect x="11" y="39.7391" width="10.1739" height="7.11538" rx="1" transform="rotate(-90 11 39.7391)" fill="#152C5B"/>
<rect x="40.8846" y="39.7391" width="10.1739" height="7.11538" rx="1" transform="rotate(-90 40.8846 39.7391)" fill="#152C5B"/>
</g>
<defs>
<clipPath id="clip0">
<rect width="48" height="48" fill="white"/>
</clipPath>
</defs>
</svg>
