<svg width="48" height="48" viewBox="0 0 48 48" fill="none" xmlns="http://www.w3.org/2000/svg">
<rect width="48" height="48" fill="white"/>
<mask id="path-1-inside-1" fill="white">
<path d="M24 6.4375C24 6.19588 24.1959 6 24.4375 6C28.0619 6 31 8.93813 31 12.5625V14.4375C31 18.0619 28.0619 21 24.4375 21C24.1959 21 24 20.8041 24 20.5625V6.4375Z"/>
</mask>
<path d="M24 6.4375C24 6.19588 24.1959 6 24.4375 6C28.0619 6 31 8.93813 31 12.5625V14.4375C31 18.0619 28.0619 21 24.4375 21C24.1959 21 24 20.8041 24 20.5625V6.4375Z" fill="#152C5B" stroke="#152C5B" stroke-width="4" mask="url(#path-1-inside-1)"/>
<mask id="path-2-inside-2" fill="white">
<path d="M38.5625 21C38.8041 21 39 21.1959 39 21.4375C39 25.0619 36.0619 28 32.4375 28L30.5625 28C26.9381 28 24 25.0619 24 21.4375C24 21.1959 24.1959 21 24.4375 21L38.5625 21Z"/>
</mask>
<path d="M38.5625 21C38.8041 21 39 21.1959 39 21.4375C39 25.0619 36.0619 28 32.4375 28L30.5625 28C26.9381 28 24 25.0619 24 21.4375C24 21.1959 24.1959 21 24.4375 21L38.5625 21Z" fill="#152C5B" stroke="#152C5B" stroke-width="4" mask="url(#path-2-inside-2)"/>
<mask id="path-3-inside-3" fill="white">
<path d="M24 35.5625C24 35.8041 23.8041 36 23.5625 36C19.9381 36 17 33.0619 17 29.4375V27.5625C17 23.9381 19.9381 21 23.5625 21C23.8041 21 24 21.1959 24 21.4375L24 35.5625Z"/>
</mask>
<path d="M24 35.5625C24 35.8041 23.8041 36 23.5625 36C19.9381 36 17 33.0619 17 29.4375V27.5625C17 23.9381 19.9381 21 23.5625 21C23.8041 21 24 21.1959 24 21.4375L24 35.5625Z" fill="#152C5B" stroke="#152C5B" stroke-width="4" mask="url(#path-3-inside-3)"/>
<mask id="path-4-inside-4" fill="white">
<path d="M9.4375 21C9.19588 21 9 20.8041 9 20.5625C9 16.9381 11.9381 14 15.5625 14L17.4375 14C21.0619 14 24 16.9381 24 20.5625C24 20.8041 23.8041 21 23.5625 21L9.4375 21Z"/>
</mask>
<path d="M9.4375 21C9.19588 21 9 20.8041 9 20.5625C9 16.9381 11.9381 14 15.5625 14L17.4375 14C21.0619 14 24 16.9381 24 20.5625C24 20.8041 23.8041 21 23.5625 21L9.4375 21Z" fill="#152C5B" stroke="#152C5B" stroke-width="4" mask="url(#path-4-inside-4)"/>
<circle cx="24.5" cy="21.5" r="2" fill="white" stroke="#152C5B"/>
<rect x="22.75" y="37.75" width="1.5" height="3.5" stroke="#152C5B" stroke-width="1.5"/>
<circle cx="24" cy="21" r="17.5" stroke="#152C5B" stroke-width="3"/>
<path d="M18 44C18 43.4477 18.4477 43 19 43H28C28.5523 43 29 43.4477 29 44V47H18V44Z" fill="#152C5B" stroke="#152C5B" stroke-width="2"/>
</svg>
