<svg width="48" height="48" viewBox="0 0 48 48" fill="none" xmlns="http://www.w3.org/2000/svg">
<rect width="48" height="48" fill="white"/>
<path d="M35.5 13.5714C35.5 17.1081 34.0899 25.4286 31.7604 32.9C30.5988 36.6255 29.24 40.0346 27.7735 42.4816C27.0393 43.7067 26.3175 44.6236 25.6345 45.2187C24.9531 45.8124 24.4136 46 24 46C23.5864 46 23.0469 45.8124 22.3655 45.2187C21.6825 44.6236 20.9607 43.7067 20.2265 42.4816C18.76 40.0346 17.4012 36.6255 16.2396 32.9C13.9101 25.4286 12.5 17.1081 12.5 13.5714C12.5 6.8431 17.7089 1.5 24 1.5C30.2911 1.5 35.5 6.8431 35.5 13.5714Z" stroke="#152C5B" stroke-width="3"/>
<circle cx="24" cy="15" r="4" stroke="#152C5B" stroke-width="2"/>
</svg>
